<svg width="624" height="399" viewBox="0 0 624 399" fill="none" xmlns="http://www.w3.org/2000/svg">
<path d="M93.9449 108.956C94.9858 97.755 97.8605 86.8004 102.454 76.5301C103.735 73.672 105.144 70.8768 106.682 68.1445C106.759 68.0016 106.778 67.8344 106.734 67.678C106.69 67.5217 106.587 67.3886 106.447 67.3067C106.306 67.2248 106.14 67.2005 105.982 67.2389C105.824 67.2774 105.687 67.3756 105.601 67.5129C100.007 77.4645 96.0887 88.2671 94.0016 99.4888C93.4211 102.623 92.9847 105.778 92.6926 108.956C92.6184 109.758 93.8712 109.753 93.9449 108.956Z" fill="#E6E6E6"/>
<path d="M109.715 70.1515C114.095 70.1515 117.646 66.6031 117.646 62.2258C117.646 57.8486 114.095 54.3002 109.715 54.3002C105.334 54.3002 101.783 57.8486 101.783 62.2258C101.783 66.6031 105.334 70.1515 109.715 70.1515Z" fill="#E6E6E6"/>
<path d="M94.7559 109.167C95.4311 101.9 97.2961 94.7933 100.276 88.1304C101.107 86.2762 102.021 84.4629 103.019 82.6903C103.069 82.5976 103.081 82.4891 103.053 82.3877C103.024 82.2863 102.957 82.1999 102.866 82.1468C102.775 82.0936 102.667 82.0778 102.565 82.1028C102.462 82.1278 102.374 82.1915 102.318 82.2805C98.6888 88.7366 96.1466 95.7448 94.7927 103.025C94.416 105.058 94.133 107.105 93.9435 109.167C93.8953 109.687 94.7081 109.684 94.7559 109.167Z" fill="#E6E6E6"/>
<path d="M104.987 83.9923C107.829 83.9923 110.133 81.6903 110.133 78.8506C110.133 76.0109 107.829 73.7088 104.987 73.7088C102.145 73.7088 99.8418 76.0109 99.8418 78.8506C99.8418 81.6903 102.145 83.9923 104.987 83.9923Z" fill="#E6E6E6"/>
<path d="M93.7311 108.681C89.7907 102.537 86.887 95.7869 85.1358 88.7017C84.6495 86.7292 84.2542 84.7375 83.9499 82.7266C83.9323 82.6227 83.8751 82.5298 83.7902 82.4673C83.7053 82.4049 83.5995 82.3778 83.495 82.3918C83.3905 82.4058 83.2956 82.4598 83.2302 82.5425C83.1649 82.6251 83.1341 82.7298 83.1446 82.8346C84.2572 90.1554 86.5663 97.2437 89.9796 103.816C90.934 105.65 91.9709 107.439 93.0905 109.181C93.3726 109.62 94.0114 109.118 93.7311 108.681Z" fill="#E6E6E6"/>
<path d="M83.1377 83.6314C85.9794 83.6314 88.2831 81.3293 88.2831 78.4896C88.2831 75.6499 85.9794 73.3479 83.1377 73.3479C80.2959 73.3479 77.9922 75.6499 77.9922 78.4896C77.9922 81.3293 80.2959 83.6314 83.1377 83.6314Z" fill="#E6E6E6"/>
<path d="M77.9355 113.231V103.128C77.9367 102.124 78.3365 101.161 79.0472 100.451C79.7579 99.7405 80.7216 99.341 81.7267 99.3399H105.316C106.321 99.341 107.285 99.7405 107.995 100.451C108.706 101.161 109.106 102.124 109.107 103.128V113.231C109.106 114.235 108.706 115.198 107.995 115.908C107.285 116.618 106.321 117.018 105.316 117.019H81.7267C80.7216 117.018 79.7579 116.618 79.0472 115.908C78.3365 115.198 77.9367 114.235 77.9355 113.231Z" fill="#F2F2F2"/>
<path d="M104.473 48.8281H94.3634C93.3583 48.827 92.3947 48.4274 91.6839 47.7172C90.9732 47.007 90.5734 46.0441 90.5723 45.0397V3.78839C90.5734 2.78399 90.9732 1.82106 91.6839 1.11085C92.3947 0.400631 93.3583 0.00113575 94.3634 3.8147e-06H104.473C105.478 0.00113575 106.442 0.400631 107.153 1.11085C107.863 1.82106 108.263 2.78399 108.264 3.78839V45.0397C108.263 46.0441 107.863 47.007 107.153 47.7172C106.442 48.4274 105.478 48.827 104.473 48.8281Z" fill="#F2F2F2"/>
<path d="M107.842 7.9977H90.9922V11.3652H107.842V7.9977Z" fill="#CCCCCC"/>
<path d="M107.842 34.0955H90.9922V37.4629H107.842V34.0955Z" fill="#CCCCCC"/>
<path d="M129.747 48.8281H119.637C118.632 48.827 117.668 48.4274 116.957 47.7172C116.247 47.007 115.847 46.0441 115.846 45.0397V3.78839C115.847 2.78399 116.247 1.82106 116.957 1.11085C117.668 0.400631 118.632 0.00113575 119.637 3.8147e-06H129.747C130.752 0.00113575 131.715 0.400631 132.426 1.11085C133.137 1.82106 133.537 2.78399 133.538 3.78839V45.0397C133.537 46.0441 133.137 47.007 132.426 47.7172C131.715 48.4274 130.752 48.827 129.747 48.8281Z" fill="#F2F2F2"/>
<path d="M133.117 7.9977H116.268V11.3652H133.117V7.9977Z" fill="#CCCCCC"/>
<path d="M133.117 34.0955H116.268V37.4629H133.117V34.0955Z" fill="#CCCCCC"/>
<path d="M155.022 48.8281H144.912C143.907 48.827 142.943 48.4274 142.233 47.7172C141.522 47.007 141.122 46.0441 141.121 45.0397V3.78839C141.122 2.78399 141.522 1.82106 142.233 1.11085C142.943 0.400631 143.907 0.00113575 144.912 3.8147e-06H155.022C156.027 0.00113575 156.991 0.400631 157.701 1.11085C158.412 1.82106 158.812 2.78399 158.813 3.78839V45.0397C158.812 46.0441 158.412 47.007 157.701 47.7172C156.991 48.4274 156.027 48.827 155.022 48.8281Z" fill="#F2F2F2"/>
<path d="M158.391 7.9977H141.541V11.3652H158.391V7.9977Z" fill="#CCCCCC"/>
<path d="M158.391 34.0955H141.541V37.4629H158.391V34.0955Z" fill="#CCCCCC"/>
<path d="M168.5 117.019H158.391C157.386 117.018 156.422 116.618 155.711 115.908C155.001 115.198 154.601 114.235 154.6 113.231V71.9793C154.601 70.9749 155.001 70.012 155.711 69.3018C156.422 68.5916 157.386 68.1921 158.391 68.1909H168.5C169.506 68.1921 170.469 68.5916 171.18 69.3018C171.891 70.012 172.29 70.9749 172.292 71.9793V113.231C172.29 114.235 171.891 115.198 171.18 115.908C170.469 116.618 169.506 117.018 168.5 117.019Z" fill="#F2F2F2"/>
<path d="M171.871 76.1886H155.021V79.5561H171.871V76.1886Z" fill="#CCCCCC"/>
<path d="M171.871 102.286H155.021V105.654H171.871V102.286Z" fill="#CCCCCC"/>
<path d="M193.776 117.019H183.666C182.661 117.018 181.697 116.618 180.987 115.908C180.276 115.198 179.876 114.235 179.875 113.231V71.9793C179.876 70.9749 180.276 70.012 180.987 69.3018C181.697 68.5916 182.661 68.1921 183.666 68.1909H193.776C194.781 68.1921 195.745 68.5916 196.455 69.3018C197.166 70.012 197.566 70.9749 197.567 71.9793V113.231C197.566 114.235 197.166 115.198 196.455 115.908C195.745 116.618 194.781 117.018 193.776 117.019Z" fill="#F2F2F2"/>
<path d="M197.144 76.1886H180.295V79.5561H197.144V76.1886Z" fill="#CCCCCC"/>
<path d="M197.144 102.286H180.295V105.654H197.144V102.286Z" fill="#CCCCCC"/>
<path d="M219.049 117.019H208.94C207.934 117.018 206.971 116.618 206.26 115.908C205.549 115.198 205.15 114.235 205.148 113.231V71.9793C205.15 70.9749 205.549 70.012 206.26 69.3018C206.971 68.5916 207.934 68.1921 208.94 68.1909H219.049C220.054 68.1921 221.018 68.5916 221.729 69.3018C222.439 70.012 222.839 70.9749 222.84 71.9793V113.231C222.839 114.235 222.439 115.198 221.729 115.908C221.018 116.618 220.054 117.018 219.049 117.019Z" fill="#F2F2F2"/>
<path d="M222.42 76.1886H205.57V79.5561H222.42V76.1886Z" fill="#CCCCCC"/>
<path d="M222.42 102.286H205.57V105.654H222.42V102.286Z" fill="#CCCCCC"/>
<path d="M101.946 185.21H91.8361C90.8309 185.209 89.8673 184.809 89.1566 184.099C88.4459 183.389 88.0461 182.426 88.0449 181.422V140.17C88.0461 139.166 88.4459 138.203 89.1566 137.493C89.8673 136.783 90.8309 136.383 91.8361 136.382H101.946C102.951 136.383 103.915 136.783 104.625 137.493C105.336 138.203 105.736 139.166 105.737 140.17V181.422C105.736 182.426 105.336 183.389 104.625 184.099C103.915 184.809 102.951 185.209 101.946 185.21Z" fill="#F2F2F2"/>
<path d="M105.314 144.38H88.4648V147.747H105.314V144.38Z" fill="#CCCCCC"/>
<path d="M105.314 170.477H88.4648V173.845H105.314V170.477Z" fill="#CCCCCC"/>
<path d="M127.219 185.21H117.109C116.104 185.209 115.141 184.809 114.43 184.099C113.719 183.389 113.319 182.426 113.318 181.422V140.17C113.319 139.166 113.719 138.203 114.43 137.493C115.141 136.783 116.104 136.383 117.109 136.382H127.219C128.224 136.383 129.188 136.783 129.899 137.493C130.609 138.203 131.009 139.166 131.01 140.17V181.422C131.009 182.426 130.609 183.389 129.899 184.099C129.188 184.809 128.224 185.209 127.219 185.21Z" fill="#F2F2F2"/>
<path d="M130.59 144.38H113.74V147.747H130.59V144.38Z" fill="#CCCCCC"/>
<path d="M130.59 170.477H113.74V173.845H130.59V170.477Z" fill="#CCCCCC"/>
<path d="M152.495 185.21H142.385C141.38 185.209 140.416 184.809 139.705 184.099C138.995 183.389 138.595 182.426 138.594 181.422V140.17C138.595 139.166 138.995 138.203 139.705 137.493C140.416 136.783 141.38 136.383 142.385 136.382H152.495C153.5 136.383 154.463 136.783 155.174 137.493C155.885 138.203 156.285 139.166 156.286 140.17V181.422C156.285 182.426 155.885 183.389 155.174 184.099C154.463 184.809 153.5 185.209 152.495 185.21Z" fill="#F2F2F2"/>
<path d="M155.863 144.38H139.014V147.747H155.863V144.38Z" fill="#CCCCCC"/>
<path d="M155.863 170.477H139.014V173.845H155.863V170.477Z" fill="#CCCCCC"/>
<path d="M180.295 48.8281H170.186C169.181 48.827 168.217 48.4274 167.506 47.7172C166.795 47.007 166.396 46.0441 166.395 45.0397V3.78839C166.396 2.78399 166.795 1.82106 167.506 1.11085C168.217 0.400631 169.181 0.00113575 170.186 3.8147e-06H180.295C181.3 0.00113575 182.264 0.400631 182.975 1.11085C183.686 1.82106 184.085 2.78399 184.086 3.78839V45.0397C184.085 46.0441 183.686 47.007 182.975 47.7172C182.264 48.4274 181.3 48.827 180.295 48.8281Z" fill="#F2F2F2"/>
<path d="M183.666 7.9977H166.816V11.3652H183.666V7.9977Z" fill="#CCCCCC"/>
<path d="M183.666 34.0955H166.816V37.4629H183.666V34.0955Z" fill="#CCCCCC"/>
<path d="M205.569 48.8281H195.459C194.454 48.827 193.49 48.4274 192.78 47.7172C192.069 47.007 191.669 46.0441 191.668 45.0397V3.78839C191.669 2.78399 192.069 1.82106 192.78 1.11085C193.49 0.400631 194.454 0.00113575 195.459 3.8147e-06H205.569C206.574 0.00113575 207.538 0.400631 208.248 1.11085C208.959 1.82106 209.359 2.78399 209.36 3.78839V45.0397C209.359 46.0441 208.959 47.007 208.248 47.7172C207.538 48.4274 206.574 48.827 205.569 48.8281Z" fill="#F2F2F2"/>
<path d="M208.939 7.9977H192.09V11.3652H208.939V7.9977Z" fill="#CCCCCC"/>
<path d="M208.939 34.0955H192.09V37.4629H208.939V34.0955Z" fill="#CCCCCC"/>
<path d="M230.844 48.8281H220.734C219.729 48.827 218.766 48.4274 218.055 47.7172C217.344 47.007 216.944 46.0441 216.943 45.0397V3.78839C216.944 2.78399 217.344 1.82106 218.055 1.11085C218.766 0.400631 219.729 0.00113575 220.734 3.8147e-06H230.844C231.849 0.00113575 232.813 0.400631 233.524 1.11085C234.234 1.82106 234.634 2.78399 234.635 3.78839V45.0397C234.634 46.0441 234.234 47.007 233.524 47.7172C232.813 48.4274 231.849 48.827 230.844 48.8281Z" fill="#F2F2F2"/>
<path d="M234.215 7.9977H217.365V11.3652H234.215V7.9977Z" fill="#CCCCCC"/>
<path d="M234.215 34.0955H217.365V37.4629H234.215V34.0955Z" fill="#CCCCCC"/>
<path d="M256.118 48.8281H246.008C245.003 48.827 244.039 48.4274 243.328 47.7172C242.618 47.007 242.218 46.0441 242.217 45.0397V3.78839C242.218 2.78399 242.618 1.82106 243.328 1.11085C244.039 0.400631 245.003 0.00113575 246.008 3.8147e-06H256.118C257.123 0.00113575 258.086 0.400631 258.797 1.11085C259.508 1.82106 259.908 2.78399 259.909 3.78839V45.0397C259.908 46.0441 259.508 47.007 258.797 47.7172C258.086 48.4274 257.123 48.827 256.118 48.8281Z" fill="#F2F2F2"/>
<path d="M259.488 7.9977H242.639V11.3652H259.488V7.9977Z" fill="#CCCCCC"/>
<path d="M259.488 34.0955H242.639V37.4629H259.488V34.0955Z" fill="#CCCCCC"/>
<path d="M293.979 50.0909H53.8737C53.6503 50.0909 53.436 50.0022 53.278 49.8443C53.12 49.6864 53.0312 49.4723 53.0312 49.249C53.0312 49.0257 53.12 48.8116 53.278 48.6537C53.436 48.4958 53.6503 48.4072 53.8737 48.4072H293.979C294.202 48.4072 294.417 48.4958 294.575 48.6537C294.733 48.8116 294.821 49.0257 294.821 49.249C294.821 49.4723 294.733 49.6864 294.575 49.8443C294.417 50.0022 294.202 50.0909 293.979 50.0909Z" fill="#CCCCCC"/>
<path d="M293.979 118.282H53.8737C53.6503 118.282 53.436 118.193 53.278 118.035C53.12 117.877 53.0312 117.663 53.0312 117.44C53.0312 117.217 53.12 117.003 53.278 116.845C53.436 116.687 53.6503 116.598 53.8737 116.598H293.979C294.202 116.598 294.417 116.687 294.575 116.845C294.733 117.003 294.821 117.217 294.821 117.44C294.821 117.663 294.733 117.877 294.575 118.035C294.417 118.193 294.202 118.282 293.979 118.282Z" fill="#CCCCCC"/>
<path d="M293.979 186.473H53.8737C53.6503 186.473 53.436 186.384 53.278 186.226C53.12 186.068 53.0312 185.854 53.0312 185.631C53.0312 185.408 53.12 185.193 53.278 185.036C53.436 184.878 53.6503 184.789 53.8737 184.789H293.979C294.202 184.789 294.417 184.878 294.575 185.036C294.733 185.193 294.821 185.408 294.821 185.631C294.821 185.854 294.733 186.068 294.575 186.226C294.417 186.384 294.202 186.473 293.979 186.473Z" fill="#CCCCCC"/>
<path d="M279.76 318.63C279.76 312.121 255.243 306.844 224.999 306.844C194.756 306.844 170.238 312.121 170.238 318.63C170.238 322.802 180.318 326.465 195.513 328.56V393.135C195.513 394.587 196.089 395.978 197.116 397.005C198.143 398.031 199.536 398.607 200.989 398.607C202.441 398.607 203.834 398.031 204.861 397.005C205.888 395.978 206.465 394.587 206.465 393.135V329.723C212.254 330.171 218.493 330.417 224.999 330.417C231.506 330.417 237.744 330.171 243.534 329.723V393.135C243.534 394.587 244.111 395.978 245.137 397.005C246.164 398.031 247.557 398.607 249.01 398.607C250.462 398.607 251.855 398.031 252.882 397.005C253.909 395.978 254.486 394.587 254.486 393.135V328.56C269.68 326.465 279.76 322.802 279.76 318.63Z" fill="#CCCCCC"/>
<path d="M269.224 388.02H279.553L284.466 348.21H269.223L269.224 388.02Z" fill="#A0616A"/>
<path d="M299.473 397.603L267.012 397.604L267.011 385.071L286.93 385.07C290.257 385.07 293.447 386.391 295.799 388.741C298.151 391.091 299.473 394.279 299.473 397.603Z" fill="#2F2E41"/>
<path d="M285.347 382.26L295.201 379.169L287.962 339.716L273.418 344.276L285.347 382.26Z" fill="#A0616A"/>
<path d="M317.078 382.353L286.106 392.066L282.351 380.108L301.356 374.148C304.53 373.153 307.969 373.458 310.918 374.997C313.866 376.536 316.082 379.182 317.078 382.353Z" fill="#2F2E41"/>
<path d="M278.437 363.937L259.542 314.375C255.304 315.37 219.755 323.23 207.849 310.563C203.769 306.221 202.973 299.931 205.484 291.867L212.432 283.142L212.648 283.153C215.275 283.291 277.043 286.751 281.277 305.369C284.847 321.065 291.367 350.329 293.28 358.924C293.474 359.815 293.341 360.745 292.906 361.546C292.471 362.347 291.762 362.965 290.909 363.288L283.311 366.135C282.887 366.294 282.439 366.376 281.987 366.376C281.217 366.376 280.466 366.143 279.833 365.707C279.199 365.272 278.712 364.654 278.437 363.937Z" fill="#C0B68B"/>
<path d="M267.484 369.83L248.589 320.268C244.35 321.263 208.802 329.123 196.896 316.456C192.816 312.114 192.02 305.824 194.531 297.76L201.479 289.035L201.695 289.046C204.322 289.184 266.09 292.644 270.324 311.262C273.894 326.958 280.414 356.222 282.327 364.817C282.521 365.708 282.388 366.638 281.953 367.439C281.518 368.24 280.809 368.858 279.956 369.181L272.358 372.028C271.934 372.187 271.486 372.269 271.033 372.269C270.264 372.269 269.513 372.036 268.879 371.6C268.246 371.165 267.759 370.547 267.484 369.83Z" fill="#C0B68B"/>
<path d="M293.019 251.024C292.74 251.397 292.491 251.791 292.274 252.204L250.723 256.578L244.742 248.383L231.186 255.787L242.933 275.673L293.892 262.689C295.178 263.942 296.815 264.774 298.585 265.074C300.355 265.374 302.175 265.129 303.802 264.371C305.43 263.612 306.787 262.377 307.695 260.829C308.603 259.28 309.017 257.493 308.883 255.703C308.749 253.914 308.073 252.208 306.945 250.812C305.817 249.416 304.291 248.396 302.569 247.888C300.847 247.38 299.011 247.408 297.305 247.968C295.599 248.528 294.104 249.594 293.019 251.024Z" fill="#A0616A"/>
<path d="M194.265 300.377C193.697 299.967 193.253 299.408 192.982 298.762C192.712 298.116 192.626 297.408 192.733 296.716C195.077 281.274 192.38 259.152 189.705 243.314C189.157 240.101 189.37 236.803 190.327 233.687C191.284 230.571 192.958 227.721 195.215 225.368C197.472 223.014 200.249 221.221 203.324 220.133C206.399 219.044 209.686 218.691 212.923 219.101C215.738 219.472 218.528 220.022 221.274 220.746C225.836 221.894 229.871 224.558 232.716 228.302C235.561 232.046 237.047 236.645 236.929 241.344C236.529 256.628 239.634 275.697 240.988 283.186C241.081 283.7 241.066 284.228 240.945 284.737C240.824 285.245 240.6 285.723 240.286 286.141C239.978 286.555 239.587 286.9 239.138 287.154C238.689 287.407 238.191 287.564 237.678 287.615C222.675 289.145 206.496 296.456 198.187 300.678C197.653 300.953 197.062 301.097 196.461 301.099C195.671 301.097 194.902 300.844 194.265 300.377Z" fill="#F8C963"/>
<path d="M234.763 260.547C234.299 260.365 233.876 260.093 233.519 259.746C233.161 259.4 232.876 258.986 232.679 258.528L224.312 239.214C223.805 238.047 223.534 236.792 223.513 235.52C223.492 234.248 223.722 232.985 224.19 231.802C224.658 230.619 225.355 229.54 226.241 228.626C227.126 227.712 228.183 226.982 229.352 226.477C230.52 225.971 231.776 225.701 233.049 225.681C234.322 225.661 235.586 225.892 236.77 226.361C237.953 226.83 239.032 227.527 239.946 228.413C240.86 229.298 241.59 230.355 242.094 231.523L250.461 250.837C250.859 251.76 250.875 252.802 250.505 253.736C250.136 254.669 249.41 255.419 248.488 255.819L237.664 260.501C237.208 260.7 236.716 260.806 236.218 260.814C235.72 260.822 235.226 260.731 234.763 260.547Z" fill="#F8C963"/>
<path d="M253.422 249.34C253.143 249.713 252.893 250.108 252.676 250.52L211.125 254.894L205.144 246.7L191.588 254.103L203.336 273.989L254.295 261.006C255.58 262.258 257.217 263.09 258.988 263.39C260.758 263.69 262.577 263.445 264.205 262.687C265.832 261.928 267.19 260.693 268.097 259.145C269.005 257.597 269.419 255.809 269.285 254.02C269.151 252.231 268.476 250.524 267.348 249.128C266.22 247.732 264.693 246.712 262.971 246.204C261.249 245.696 259.413 245.724 257.707 246.284C256.001 246.844 254.507 247.91 253.422 249.34Z" fill="#A0616A"/>
<path d="M195.167 261.389C194.704 261.207 194.281 260.935 193.923 260.588C193.565 260.242 193.28 259.828 193.083 259.37L184.716 240.056C184.21 238.889 183.938 237.634 183.917 236.362C183.896 235.09 184.127 233.827 184.595 232.644C185.063 231.461 185.759 230.381 186.645 229.468C187.531 228.554 188.588 227.824 189.756 227.318C190.924 226.813 192.181 226.543 193.453 226.523C194.726 226.503 195.99 226.734 197.174 227.203C198.357 227.672 199.437 228.369 200.35 229.254C201.264 230.14 201.994 231.197 202.499 232.365L210.866 251.679C211.264 252.601 211.28 253.644 210.91 254.578C210.54 255.511 209.814 256.26 208.893 256.661L198.069 261.343C197.612 261.542 197.121 261.648 196.623 261.656C196.125 261.664 195.63 261.573 195.167 261.389Z" fill="#F8C963"/>
<path d="M211.381 212.53C222.809 212.53 232.074 203.273 232.074 191.853C232.074 180.433 222.809 171.176 211.381 171.176C199.954 171.176 190.689 180.433 190.689 191.853C190.689 203.273 199.954 212.53 211.381 212.53Z" fill="#A0616A"/>
<path d="M196.587 206.044C196.498 205.785 196.47 205.508 196.505 205.236C196.539 204.964 196.636 204.703 196.787 204.474C196.938 204.245 197.139 204.054 197.376 203.914C197.612 203.775 197.877 203.692 198.151 203.671C198.711 203.701 199.26 203.845 199.763 204.093C200.267 204.341 200.714 204.689 201.08 205.115C201.828 205.977 202.7 206.725 203.667 207.335C204.668 207.839 206.025 207.767 206.596 206.806C207.132 205.903 206.765 204.694 206.44 203.646C205.615 200.978 205.153 198.212 205.067 195.421C204.974 192.306 205.414 189.055 207.139 186.625C209.367 183.489 213.35 182.299 217.119 182.385C220.888 182.471 224.596 183.634 228.33 184.369C229.619 184.623 231.134 184.753 231.996 183.754C232.913 182.693 232.576 180.975 232.186 179.542C231.174 175.823 230.101 171.978 227.75 168.975C225.208 165.854 221.578 163.811 217.589 163.258C213.76 162.784 209.873 163.225 206.248 164.545C200.341 166.405 195.143 170.023 191.35 174.916C187.44 180.118 185.75 186.656 186.651 193.1C187.53 198.712 190.507 203.783 194.979 207.289L196.587 206.044Z" fill="#2F2E41"/>
<path d="M117.582 255.822C118.623 244.621 121.497 233.666 126.091 223.396C127.371 220.538 128.781 217.743 130.319 215.011C130.396 214.868 130.414 214.7 130.371 214.544C130.327 214.388 130.224 214.255 130.083 214.173C129.943 214.091 129.777 214.067 129.619 214.105C129.461 214.143 129.324 214.242 129.237 214.379C123.644 224.331 119.725 235.133 117.638 246.355C117.058 249.489 116.621 252.644 116.329 255.822C116.255 256.624 117.508 256.619 117.582 255.822Z" fill="#3F3D56"/>
<path d="M133.351 217.018C137.732 217.018 141.283 213.469 141.283 209.092C141.283 204.715 137.732 201.166 133.351 201.166C128.971 201.166 125.42 204.715 125.42 209.092C125.42 213.469 128.971 217.018 133.351 217.018Z" fill="#6388F8"/>
<path d="M118.393 256.033C119.068 248.766 120.933 241.659 123.913 234.996C124.744 233.142 125.658 231.329 126.656 229.556C126.706 229.464 126.718 229.355 126.689 229.254C126.661 229.152 126.594 229.066 126.503 229.013C126.412 228.96 126.304 228.944 126.202 228.969C126.099 228.994 126.011 229.058 125.954 229.147C122.326 235.603 119.783 242.611 118.429 249.891C118.053 251.924 117.77 253.971 117.58 256.033C117.532 256.553 118.345 256.55 118.393 256.033Z" fill="#3F3D56"/>
<path d="M128.622 230.858C131.464 230.858 133.767 228.556 133.767 225.717C133.767 222.877 131.464 220.575 128.622 220.575C125.78 220.575 123.477 222.877 123.477 225.717C123.477 228.556 125.78 230.858 128.622 230.858Z" fill="#6388F8"/>
<path d="M117.366 255.548C113.425 249.403 110.522 242.653 108.771 235.568C108.284 233.595 107.889 231.604 107.585 229.593C107.567 229.489 107.51 229.396 107.425 229.333C107.34 229.271 107.234 229.244 107.13 229.258C107.025 229.272 106.93 229.326 106.865 229.409C106.8 229.491 106.769 229.596 106.779 229.701C107.892 237.021 110.201 244.11 113.614 250.682C114.569 252.517 115.606 254.305 116.725 256.047C117.007 256.486 117.646 255.984 117.366 255.548Z" fill="#3F3D56"/>
<path d="M106.774 230.497C109.616 230.497 111.92 228.195 111.92 225.356C111.92 222.516 109.616 220.214 106.774 220.214C103.933 220.214 101.629 222.516 101.629 225.356C101.629 228.195 103.933 230.497 106.774 230.497Z" fill="#6388F8"/>
<path d="M101.57 260.097V249.994C101.571 248.99 101.971 248.027 102.682 247.317C103.393 246.607 104.356 246.207 105.361 246.206H128.951C129.956 246.207 130.919 246.607 131.63 247.317C132.341 248.027 132.741 248.99 132.742 249.994V260.097C132.741 261.101 132.341 262.064 131.63 262.774C130.919 263.485 129.956 263.884 128.951 263.885H105.361C104.356 263.884 103.393 263.485 102.682 262.774C101.971 262.064 101.571 261.101 101.57 260.097Z" fill="#CCCCCC"/>
<path d="M313.037 257.174H246.482C244.853 257.174 243.533 258.494 243.533 260.121C243.533 261.748 244.853 263.067 246.482 263.067H313.037C314.666 263.067 315.986 261.748 315.986 260.121C315.986 258.494 314.666 257.174 313.037 257.174Z" fill="#CCCCCC"/>
<path d="M357.689 263.067H282.709C281.257 263.066 279.865 262.489 278.838 261.463C277.812 260.437 277.234 259.046 277.232 257.595V216.344C277.234 214.893 277.812 213.502 278.838 212.476C279.865 211.451 281.257 210.874 282.709 210.872H357.689C359.141 210.874 360.532 211.451 361.559 212.476C362.586 213.502 363.163 214.893 363.165 216.344V257.595C363.163 259.046 362.586 260.437 361.559 261.463C360.532 262.489 359.141 263.066 357.689 263.067Z" fill="#CCCCCC"/>
<path d="M320.199 242.021C322.991 242.021 325.254 239.759 325.254 236.97C325.254 234.18 322.991 231.918 320.199 231.918C317.408 231.918 315.145 234.18 315.145 236.97C315.145 239.759 317.408 242.021 320.199 242.021Z" fill="white"/>
<path d="M548.51 318.63C548.51 312.121 523.993 306.844 493.749 306.844C463.506 306.844 438.988 312.121 438.988 318.63C438.988 322.802 449.068 326.465 464.263 328.56V393.135C464.263 394.587 464.839 395.978 465.866 397.005C466.893 398.031 468.286 398.607 469.739 398.607C471.191 398.607 472.584 398.031 473.611 397.005C474.638 395.978 475.215 394.587 475.215 393.135V329.723C481.004 330.171 487.243 330.417 493.749 330.417C500.256 330.417 506.494 330.171 512.284 329.723V393.135C512.284 394.587 512.86 395.978 513.887 397.005C514.914 398.031 516.307 398.607 517.76 398.607C519.212 398.607 520.605 398.031 521.632 397.005C522.659 395.978 523.236 394.587 523.236 393.135V328.56C538.43 326.465 548.51 322.802 548.51 318.63Z" fill="#CCCCCC"/>
<path d="M499.804 210.752C512.832 210.752 523.393 200.198 523.393 187.18C523.393 174.161 512.832 163.608 499.804 163.608C486.776 163.608 476.215 174.161 476.215 187.18C476.215 200.198 486.776 210.752 499.804 210.752Z" fill="#2F2E41"/>
<path d="M441.1 388.862H430.771L425.857 349.052H441.101L441.1 388.862Z" fill="#FFB8B8"/>
<path d="M423.393 385.912H443.313V398.445H410.852C410.852 396.799 411.176 395.17 411.806 393.649C412.437 392.128 413.36 390.747 414.525 389.583C415.69 388.419 417.072 387.496 418.594 386.866C420.115 386.237 421.746 385.912 423.393 385.912Z" fill="#2F2E41"/>
<path d="M424.977 383.102L415.123 380.011L422.362 340.557L436.906 345.118L424.977 383.102Z" fill="#FFB8B8"/>
<path d="M408.966 374.99L427.972 380.95L424.217 392.908L393.245 383.195C393.738 381.625 394.536 380.167 395.593 378.905C396.65 377.643 397.945 376.601 399.405 375.839C400.865 375.077 402.461 374.61 404.101 374.464C405.742 374.319 407.395 374.497 408.966 374.99Z" fill="#2F2E41"/>
<path d="M428.338 367.218C427.885 367.218 427.437 367.136 427.013 366.977L419.415 364.13C418.562 363.807 417.853 363.189 417.418 362.388C416.983 361.587 416.85 360.656 417.044 359.766C418.957 351.17 425.477 321.907 429.047 306.211C433.281 287.593 495.049 284.133 497.676 283.995L497.892 283.983L504.84 292.709C507.351 300.773 506.555 307.063 502.475 311.405C490.569 324.072 455.021 316.212 450.782 315.217L431.887 364.778C431.612 365.496 431.125 366.113 430.492 366.549C429.858 366.984 429.107 367.218 428.338 367.218Z" fill="#2F2E41"/>
<path d="M439.289 373.111C438.836 373.111 438.388 373.029 437.964 372.87L430.366 370.023C429.513 369.7 428.804 369.082 428.369 368.281C427.934 367.48 427.801 366.549 427.995 365.659C429.908 357.063 436.428 327.8 439.998 312.104C444.232 293.486 506 290.026 508.627 289.888L508.843 289.876L515.792 298.602C518.302 306.666 517.507 312.956 513.426 317.298C501.52 329.964 465.972 322.105 461.733 321.11L442.839 370.671C442.563 371.389 442.077 372.006 441.443 372.442C440.809 372.877 440.058 373.111 439.289 373.111Z" fill="#2F2E41"/>
<path d="M417.306 251.866C417.585 252.239 417.835 252.633 418.052 253.045L459.603 257.42L465.584 249.225L479.14 256.629L467.392 276.515L416.433 263.531C415.147 264.784 413.511 265.616 411.74 265.916C409.97 266.216 408.15 265.971 406.523 265.212C404.896 264.454 403.538 263.219 402.631 261.67C401.723 260.122 401.309 258.335 401.443 256.545C401.577 254.756 402.252 253.05 403.38 251.654C404.508 250.258 406.035 249.238 407.757 248.73C409.479 248.222 411.315 248.25 413.021 248.81C414.727 249.37 416.221 250.436 417.306 251.866Z" fill="#FFB8B8"/>
<path d="M513.865 301.941C513.264 301.939 512.672 301.795 512.138 301.519C503.829 297.298 487.65 289.987 472.647 288.457C472.134 288.406 471.637 288.249 471.188 287.995C470.739 287.742 470.348 287.397 470.04 286.983C469.726 286.565 469.501 286.087 469.38 285.579C469.259 285.07 469.245 284.542 469.337 284.028C470.691 276.539 473.797 257.47 473.397 242.186C473.279 237.487 474.764 232.887 477.61 229.144C480.455 225.4 484.49 222.736 489.051 221.588C491.798 220.864 494.587 220.314 497.403 219.943C500.639 219.533 503.926 219.886 507.001 220.975C510.077 222.063 512.854 223.856 515.111 226.209C517.368 228.563 519.042 231.412 519.998 234.529C520.955 237.645 521.168 240.942 520.621 244.156C517.945 259.994 515.248 282.115 517.592 297.558C517.7 298.25 517.614 298.958 517.343 299.604C517.073 300.25 516.629 300.809 516.06 301.219C515.423 301.686 514.655 301.939 513.865 301.941Z" fill="#6388F8"/>
<path d="M474.165 261.657C473.647 261.656 473.135 261.549 472.66 261.343L461.836 256.661C460.914 256.26 460.189 255.511 459.819 254.578C459.449 253.644 459.465 252.601 459.863 251.679L468.23 232.365C468.735 231.197 469.465 230.14 470.379 229.254C471.292 228.369 472.372 227.672 473.555 227.203C474.738 226.734 476.003 226.503 477.275 226.523C478.548 226.543 479.805 226.813 480.973 227.318C482.141 227.824 483.198 228.554 484.084 229.468C484.969 230.381 485.666 231.461 486.134 232.644C486.602 233.827 486.832 235.09 486.812 236.362C486.791 237.634 486.519 238.889 486.012 240.056L477.646 259.37C477.351 260.049 476.865 260.626 476.247 261.032C475.629 261.439 474.905 261.655 474.165 261.657Z" fill="#6388F8"/>
<path d="M498.942 213.372C510.37 213.372 519.634 204.115 519.634 192.695C519.634 181.275 510.37 172.018 498.942 172.018C487.514 172.018 478.25 181.275 478.25 192.695C478.25 204.115 487.514 213.372 498.942 213.372Z" fill="#FFB8B8"/>
<path d="M477.877 182.536C487.678 188.515 498.728 192.153 510.166 193.167L506.762 189.092C509.24 190.008 511.848 190.525 514.488 190.625C517.125 190.584 519.889 189.57 521.385 187.4C522.053 186.321 522.449 185.097 522.541 183.832C522.633 182.567 522.417 181.298 521.912 180.135C520.875 177.814 519.26 175.796 517.222 174.275C513.61 171.42 509.347 169.502 504.813 168.692C500.279 167.882 495.615 168.206 491.237 169.634C488.233 170.531 485.544 172.255 483.476 174.609C481.514 177.027 477.738 179.182 478.742 182.129L477.877 182.536Z" fill="#2F2E41"/>
<path d="M502.421 165.85C495.895 159.236 487.997 154.133 479.284 150.899C473.691 148.828 467.604 147.549 461.757 148.725C455.909 149.901 450.38 153.943 448.748 159.676C447.415 164.363 448.792 169.411 450.862 173.824C452.932 178.236 455.696 182.329 457.37 186.906C459.078 191.577 459.592 196.6 458.864 201.519C458.137 206.438 456.192 211.098 453.205 215.076C450.218 219.054 446.284 222.223 441.761 224.296C437.238 226.369 432.268 227.28 427.303 226.947C433.048 227.717 438.343 230.415 443.959 231.851C449.575 233.287 456.203 233.189 460.376 229.169C464.791 224.916 464.88 218 464.666 211.875L463.714 184.561C463.552 179.918 463.414 175.126 465.09 170.792C466.765 166.458 470.748 162.663 475.397 162.703C478.921 162.732 482.04 164.866 484.865 166.969C487.691 169.073 490.682 171.317 494.192 171.63C497.702 171.943 501.709 169.347 501.447 165.836" fill="#2F2E41"/>
<path d="M406.238 236.637L453.883 237.761L460.785 288.656L416.785 289.643L406.238 236.637Z" fill="#E6E6E6"/>
<path d="M456.902 250.182C457.181 250.555 457.43 250.949 457.647 251.362L499.199 255.736L505.18 247.541L518.736 254.945L506.988 274.831L456.029 261.847C454.743 263.1 453.106 263.932 451.336 264.232C449.566 264.532 447.746 264.287 446.119 263.529C444.492 262.77 443.134 261.535 442.226 259.987C441.319 258.438 440.904 256.651 441.038 254.862C441.172 253.072 441.848 251.366 442.976 249.97C444.104 248.574 445.63 247.554 447.352 247.046C449.075 246.538 450.911 246.566 452.616 247.126C454.322 247.686 455.817 248.752 456.902 250.182Z" fill="#FFB8B8"/>
<path d="M513.761 262.499C513.243 262.498 512.731 262.391 512.256 262.185L501.432 257.502C500.51 257.102 499.785 256.353 499.415 255.419C499.045 254.486 499.061 253.443 499.459 252.521L507.826 233.207C508.331 232.039 509.061 230.982 509.974 230.096C510.888 229.211 511.967 228.513 513.151 228.045C514.334 227.576 515.598 227.345 516.871 227.365C518.144 227.385 519.4 227.655 520.569 228.16C521.737 228.665 522.794 229.396 523.68 230.31C524.565 231.223 525.262 232.302 525.73 233.485C526.198 234.668 526.428 235.932 526.407 237.204C526.386 238.476 526.115 239.731 525.608 240.898L517.241 260.212C516.947 260.89 516.461 261.468 515.843 261.874C515.224 262.28 514.501 262.497 513.761 262.499Z" fill="#6388F8"/>
<path d="M415.82 262.226H80.5151C79.0628 262.226 77.6699 262.802 76.643 263.828C75.616 264.855 75.0391 266.246 75.0391 267.698C75.0391 269.149 75.616 270.541 76.643 271.567C77.6699 272.593 79.0628 273.17 80.5151 273.17H90.2036V392.294C90.2036 393.745 90.7805 395.137 91.8075 396.163C92.8345 397.189 94.2273 397.766 95.6797 397.766C97.132 397.766 98.5249 397.189 99.5519 396.163C100.579 395.137 101.156 393.745 101.156 392.294V283.685L162.548 394.876C163.276 396.13 164.471 397.044 165.873 397.418C167.274 397.792 168.767 397.594 170.023 396.87C171.279 396.145 172.196 394.952 172.573 393.552C172.95 392.153 172.755 390.661 172.033 389.404L107.857 273.17H401.077V273.241L336.94 389.404C336.214 390.661 336.017 392.155 336.393 393.556C336.769 394.958 337.686 396.153 338.944 396.879C340.202 397.605 341.697 397.801 343.099 397.426C344.502 397.05 345.698 396.133 346.424 394.876L401.077 295.892V392.294C401.077 393.745 401.654 395.137 402.681 396.163C403.708 397.189 405.1 397.766 406.553 397.766C408.005 397.766 409.398 397.189 410.425 396.163C411.452 395.137 412.029 393.745 412.029 392.294V276.055L413.622 273.17H415.82C417.272 273.17 418.665 272.593 419.692 271.567C420.719 270.541 421.296 269.149 421.296 267.698C421.296 266.246 420.719 264.855 419.692 263.828C418.665 262.802 417.272 262.226 415.82 262.226Z" fill="#3F3D56"/>
<path d="M547.407 399H53.6748C53.464 398.999 53.2621 398.906 53.1133 398.741C52.9644 398.576 52.8809 398.352 52.8809 398.119C52.8809 397.886 52.9644 397.662 53.1133 397.497C53.2621 397.332 53.464 397.239 53.6748 397.238H547.407C547.618 397.238 547.82 397.331 547.97 397.496C548.119 397.662 548.203 397.886 548.203 398.119C548.203 398.353 548.119 398.577 547.97 398.742C547.82 398.907 547.618 399 547.407 399Z" fill="#3F3D56"/>
</svg>
