<svg width="50" height="51" viewBox="0 0 50 51" fill="none" xmlns="http://www.w3.org/2000/svg">
<ellipse cx="23.3333" cy="26.5274" rx="23.3333" ry="23.9726" fill="#ABABAB"/>
<ellipse cx="26.6673" cy="24.4726" rx="23.3333" ry="23.9726" fill="url(#paint0_linear_146_2262)"/>
<path d="M25.0005 9.33331C21.9063 9.33331 18.9388 10.5625 16.7509 12.7504C14.563 14.9383 13.3338 17.9058 13.3338 21V26.88C13.334 27.1385 13.2741 27.3936 13.1588 27.625L10.2971 33.3466C10.1573 33.6262 10.0913 33.9368 10.1054 34.249C10.1194 34.5612 10.213 34.8647 10.3774 35.1305C10.5417 35.3964 10.7712 35.6158 11.0442 35.768C11.3172 35.9202 11.6246 36 11.9371 36H38.0638C38.3763 36 38.6837 35.9202 38.9567 35.768C39.2297 35.6158 39.4592 35.3964 39.6235 35.1305C39.7879 34.8647 39.8815 34.5612 39.8955 34.249C39.9096 33.9368 39.8436 33.6262 39.7038 33.3466L36.8438 27.625C36.7279 27.3937 36.6674 27.1387 36.6671 26.88V21C36.6671 17.9058 35.438 14.9383 33.25 12.7504C31.0621 10.5625 28.0946 9.33331 25.0005 9.33331ZM25.0005 41C23.966 41.0005 22.9569 40.6802 22.1122 40.0832C21.2674 39.4862 20.6286 38.6419 20.2838 37.6666H29.7171C29.3723 38.6419 28.7335 39.4862 27.8888 40.0832C27.044 40.6802 26.0349 41.0005 25.0005 41Z" fill="black"/>
<defs>
<linearGradient id="paint0_linear_146_2262" x1="26.6673" y1="0.5" x2="26.6673" y2="48.4452" gradientUnits="userSpaceOnUse">
<stop stop-color="#FCF1C4"/>
<stop offset="1" stop-color="#FCD2D2"/>
</linearGradient>
</defs>
</svg>
