<svg width="50" height="51" viewBox="0 0 50 51" fill="none" xmlns="http://www.w3.org/2000/svg">
<ellipse cx="23.3333" cy="26.5274" rx="23.3333" ry="23.9726" fill="#ABABAB"/>
<ellipse cx="26.6673" cy="24.4726" rx="23.3333" ry="23.9726" fill="url(#paint0_linear_146_2253)"/>
<path d="M27.0007 7.33331C17.834 7.33331 10.334 14.8333 10.334 24C10.334 33.1666 17.834 40.6666 27.0007 40.6666C36.1673 40.6666 43.6673 33.1666 43.6673 24C43.6673 14.8333 36.1673 7.33331 27.0007 7.33331ZM32.834 27.3333C32.334 28.1666 31.334 28.3333 30.5007 28L26.1673 25.5C25.6673 25.1666 25.334 24.6666 25.334 24V15.6666C25.334 14.6666 26.0007 14 27.0007 14C28.0007 14 28.6673 14.6666 28.6673 15.6666V23L32.1673 25C33.0007 25.5 33.1673 26.5 32.834 27.3333Z" fill="black"/>
<defs>
<linearGradient id="paint0_linear_146_2253" x1="26.6673" y1="0.5" x2="26.6673" y2="48.4452" gradientUnits="userSpaceOnUse">
<stop stop-color="#FCF1C4"/>
<stop offset="1" stop-color="#FCD2D2"/>
</linearGradient>
</defs>
</svg>
