<svg width="52" height="51" viewBox="0 0 52 51" fill="none" xmlns="http://www.w3.org/2000/svg">
<ellipse cx="23.8333" cy="26.7025" rx="23.3333" ry="23.9726" fill="#ABABAB"/>
<ellipse cx="27.1673" cy="24.6477" rx="23.3333" ry="23.9726" fill="url(#paint0_linear_146_2235)"/>
<path d="M40.0334 22.6352L22.0417 41.1352C21.5417 41.6477 20.7126 41.054 21.0376 40.4165L27.4417 27.779C27.4903 27.6836 27.5135 27.5774 27.5092 27.4705C27.5048 27.3635 27.4731 27.2595 27.4171 27.1684C27.3611 27.0772 27.2826 27.002 27.1891 26.9498C27.0957 26.8977 26.9904 26.8704 26.8834 26.8707H13.4126C13.2895 26.8706 13.1693 26.8341 13.0668 26.766C12.9644 26.6978 12.8844 26.6009 12.8368 26.4875C12.7892 26.374 12.7761 26.249 12.7992 26.1282C12.8223 26.0074 12.8806 25.896 12.9667 25.8082L29.6542 8.90191C30.1376 8.41232 30.9417 8.94982 30.673 9.58524L25.8876 20.8665C25.8471 20.9621 25.831 21.0664 25.8409 21.1698C25.8508 21.2732 25.8863 21.3725 25.9442 21.4587C26.0021 21.5449 26.0806 21.6154 26.1725 21.6637C26.2645 21.7119 26.3671 21.7365 26.4709 21.7352L39.5772 21.5727C39.7008 21.5708 39.8223 21.6055 39.9262 21.6726C40.0302 21.7397 40.1118 21.8361 40.1609 21.9497C40.21 22.0632 40.2243 22.1888 40.2019 22.3105C40.1796 22.4321 40.1217 22.5444 40.0355 22.6332" fill="black"/>
<defs>
<linearGradient id="paint0_linear_146_2235" x1="27.1673" y1="0.67511" x2="27.1673" y2="48.6203" gradientUnits="userSpaceOnUse">
<stop stop-color="#FCF1C4"/>
<stop offset="1" stop-color="#FCD2D2"/>
</linearGradient>
</defs>
</svg>
