<svg xmlns="http://www.w3.org/2000/svg" viewBox="0 0 32 32" id="safety-costume">
  <path fill="#ee654a" d="M19,31.5H31.5V15.159a4,4,0,0,0-1.174-2.831L28.674,10.68A4,4,0,0,1,27.5,7.849V2.5a2,2,0,0,0-2-2H21.936a5.507,5.507,0,0,1-2.827.875A5.525,5.525,0,0,1,16,.5H12.5a2,2,0,0,0-2,2V7.849A4,4,0,0,1,9.326,10.68L7.674,12.328A4,4,0,0,0,6.5,15.159V31.5Z"></path>
  <rect width="12.5" height="3" x="19" y="17.5" fill="#e0e0e2"></rect>
  <rect width="12.5" height="3" x="19" y="24.5" fill="#e0e0e2"></rect>
  <rect width="12.5" height="3" x="6.5" y="17.5" fill="#e0e0e2"></rect>
  <rect width="12.5" height="3" x="6.5" y="24.5" fill="#e0e0e2"></rect>
  <path fill="#ffdd56" d="M7.154,21.722H8.846a5.5,5.5,0,0,1,5.5,5.5v1.833a0,0,0,0,1,0,0H1.654a0,0,0,0,1,0,0V27.222A5.5,5.5,0,0,1,7.154,21.722Z"></path>
  <rect width="15" height="2.444" x=".5" y="29.056" fill="#ffdd56" rx="1" ry="1"></rect>
  <path fill="#ffdd56" d="M5.115,25.389V21.417a.892.892,0,0,1,.865-.917h4.038a.892.892,0,0,1,.865.917v3.972"></path>
  <path d="M30.683,11.976l-1.659-1.649A3.525,3.525,0,0,1,28,7.85V2.5A2.5,2.5,0,0,0,25.5,0H21.94a.5.5,0,0,0-.27.079A5.051,5.051,0,0,1,19.1.88a4.963,4.963,0,0,1-2.823-.8A.5.5,0,0,0,16,0H12.5A2.5,2.5,0,0,0,10,2.5V7.85a3.524,3.524,0,0,1-1.022,2.476L7.316,11.977A4.532,4.532,0,0,0,6,15.16V20H5.98a1.393,1.393,0,0,0-1.365,1.417V21.8A5.961,5.961,0,0,0,1.15,27.22V28.6A1.5,1.5,0,0,0,0,30.056V30.5A1.5,1.5,0,0,0,1.5,32h30a.5.5,0,0,0,.5-.5V15.16A4.533,4.533,0,0,0,30.683,11.976ZM2.15,27.22a4.97,4.97,0,0,1,2.465-4.307v2.476a.5.5,0,0,0,1,0V22.143a.474.474,0,0,0,0-.05v-.676A.4.4,0,0,1,5.98,21H10.02a.4.4,0,0,1,.365.417v.677a.479.479,0,0,0,0,.05v3.245a.5.5,0,0,0,1,0V22.92A5.057,5.057,0,0,1,13.2,24.749a4.957,4.957,0,0,1,.653,2.471v1.336H2.15ZM6.5,31h-5a.5.5,0,0,1-.5-.5v-.444a.5.5,0,0,1,.5-.5h.131c.007,0,.013,0,.019,0h12.7c.007,0,.013,0,.019,0H14.5a.5.5,0,0,1,.5.5V30.5a.5.5,0,0,1-.5.5Zm12,0H15.908A1.483,1.483,0,0,0,16,30.5v-.444A1.5,1.5,0,0,0,14.85,28.6V28H18.5Zm0-4H14.846c0-.06-.018-.119-.022-.179a6.014,6.014,0,0,0-.083-.679c-.017-.094-.033-.187-.055-.28a5.929,5.929,0,0,0-.226-.751c-.014-.036-.019-.076-.034-.112H18.5Zm0-3H13.891a6.054,6.054,0,0,0-2.507-2.194v-.389A1.446,1.446,0,0,0,11.318,21H18.5Zm0-4H7V18H18.5Zm0-3H7V15.16a3.524,3.524,0,0,1,1.022-2.476l1.661-1.651A4.532,4.532,0,0,0,11,7.85V2.5A1.5,1.5,0,0,1,12.5,1h2.179L18.5,12.829ZM15.73,1h.125a6.108,6.108,0,0,0,3.271.88A6.052,6.052,0,0,0,22.083,1h.181L19,11.122ZM31,31H19.5V28H31Zm0-4H19.5V25H31Zm0-3H19.5V21H31Zm0-4H19.5V18H31Zm0-3H19.5V12.828L23.314,1H25.5A1.5,1.5,0,0,1,27,2.5V7.85a4.533,4.533,0,0,0,1.317,3.185l1.659,1.649A3.525,3.525,0,0,1,31,15.16Z"></path>
</svg>
